<svg width="24" height="24" viewBox="0 0 24 24" fill="none" xmlns="http://www.w3.org/2000/svg">
<path d="M10.2815 3.78785L1.76935 17.9982C1.59385 18.3021 1.50099 18.6467 1.50001 18.9977C1.49903 19.3486 1.58996 19.6937 1.76375 19.9986C1.93755 20.3035 2.18815 20.5576 2.49063 20.7356C2.79311 20.9136 3.13692 21.0093 3.48786 21.0131H20.5121C20.8631 21.0093 21.2069 20.9136 21.5094 20.7356C21.8118 20.5576 22.0625 20.3035 22.2362 19.9986C22.41 19.6937 22.501 19.3486 22.5 18.9977C22.499 18.6467 22.4061 18.3021 22.2306 17.9982L13.7185 3.78785C13.5394 3.49249 13.2871 3.24829 12.9861 3.07882C12.6851 2.90935 12.3454 2.82031 12 2.82031C11.6546 2.82031 11.3149 2.90935 11.0139 3.07882C10.7129 3.24829 10.4606 3.49249 10.2815 3.78785Z" stroke="black" stroke-width="1.5" stroke-linecap="round" stroke-linejoin="round"/>
<path d="M12 9.75V12.75" stroke="black" stroke-width="1.5" stroke-linecap="round" stroke-linejoin="round"/>
<path d="M12 16.5H12.01" stroke="black" stroke-width="1.5" stroke-linecap="round" stroke-linejoin="round"/>
</svg>
