<svg width="17" height="16" viewBox="0 0 17 16" fill="none" xmlns="http://www.w3.org/2000/svg">
<path d="M14.5 3.33203C14.5 4.4366 11.8137 5.33203 8.5 5.33203C5.18629 5.33203 2.5 4.4366 2.5 3.33203M14.5 3.33203C14.5 2.22746 11.8137 1.33203 8.5 1.33203C5.18629 1.33203 2.5 2.22746 2.5 3.33203M14.5 3.33203V12.6654C14.5 13.772 11.8333 14.6654 8.5 14.6654C5.16667 14.6654 2.5 13.772 2.5 12.6654V3.33203M14.5 8C14.5 9.10667 11.8333 10 8.5 10C5.16667 10 2.5 9.10667 2.5 8" stroke="#666666" stroke-width="1.5" stroke-linecap="round" stroke-linejoin="round"/>
</svg>
