<svg width="17" height="12" viewBox="0 0 17 12" fill="none" xmlns="http://www.w3.org/2000/svg">
<path d="M14.2194 0.959539C13.1632 0.507186 12.0636 0.178202 10.9206 1.79228e-06C10.7759 0.24674 10.6167 0.562016 10.501 0.822461C9.28563 0.644262 8.05581 0.644261 6.84045 0.822461C6.71023 0.5346 6.56555 0.260447 6.4064 1.003e-06C5.26338 0.1782 4.14931 0.507184 3.10757 0.973244C1.02411 3.92039 0.459834 6.78529 0.734736 9.62278C1.96456 10.4864 3.3246 11.1443 4.78592 11.5556C5.1187 11.1306 5.40807 10.692 5.65403 10.2259C5.17657 10.0614 4.72805 9.85581 4.29399 9.60907C4.40974 9.52683 4.51102 9.44458 4.62677 9.36233C7.1877 10.5138 10.1682 10.5138 12.7291 9.36233C12.8449 9.44458 12.9462 9.52683 13.0619 9.60907C12.6279 9.85581 12.1649 10.0614 11.6874 10.2259C11.9334 10.692 12.2227 11.1306 12.5555 11.5556C14.0168 11.1306 15.3913 10.4864 16.6067 9.62278C16.925 6.33294 16.028 3.48175 14.2194 0.959539ZM6.00128 7.8682C5.20551 7.8682 4.56889 7.18281 4.56889 6.34665C4.56889 5.51048 5.20551 4.81139 6.00128 4.81139C6.81152 4.81139 7.44813 5.49677 7.44813 6.34665C7.43366 7.18282 6.81151 7.8682 6.00128 7.8682ZM11.3257 7.8682C10.5299 7.8682 9.89331 7.18282 9.89331 6.34665C9.89331 5.51048 10.5299 4.81139 11.3257 4.81139C12.1359 4.81139 12.7725 5.49677 12.7581 6.34665C12.7436 7.19652 12.1215 7.8682 11.3257 7.8682Z" fill="#666666"/>
</svg>
