<svg width="15" height="16" viewBox="0 0 15 16" fill="none" xmlns="http://www.w3.org/2000/svg">
<path d="M5.20811 15.9864C5.12572 16.0036 5.02852 16.0054 4.91469 15.9864L5.20811 15.9864C5.50153 15.9253 5.60705 15.6694 5.60705 15.4664L5.60705 13.7329C2.75106 14.3396 2.14525 12.3461 2.14525 12.3461C1.71252 11.1327 1.02016 10.786 1.02016 10.786C-0.0183743 10.1793 1.02016 10.1793 1.02016 10.1793C2.0587 10.266 2.57797 11.2194 2.57797 11.2194C3.52997 12.7795 5.00123 12.3461 5.60705 12.0861C5.69359 11.3927 5.95323 10.9594 6.29941 10.6993C3.96269 10.4393 1.53943 9.57259 1.53944 5.58562C1.53944 4.45887 1.97216 3.50545 2.57798 2.81207C2.57798 2.46537 2.14525 1.42529 2.75107 0.0385219C2.75107 0.0385219 3.61651 -0.221498 5.60705 1.0786C6.4725 0.818582 7.33795 0.731909 8.2034 0.731909C9.06885 0.731909 9.93429 0.818583 10.7997 1.0786C12.7903 -0.30817 13.6557 0.0385238 13.6557 0.0385238C14.2615 1.51197 13.8288 2.55205 13.7423 2.81207C14.4346 3.50546 14.7808 4.45887 14.7808 5.58562C14.7808 9.5726 12.3576 10.4393 10.0208 10.6993C10.367 11.046 10.7132 11.6528 10.7132 12.6062L10.7132 15.4664C10.7132 15.6694 10.8187 15.9253 11.1121 15.9864L11.4056 15.9864C11.2917 16.0054 11.1945 16.0036 11.1121 15.9864L5.20811 15.9864Z" fill="#666666"/>
</svg>
