<svg width="17" height="14" viewBox="0 0 17 14" fill="none" xmlns="http://www.w3.org/2000/svg">
<path d="M14.1397 13.4131C14.09 13.5368 14.0145 13.6484 13.9182 13.7406C13.8219 13.8327 13.7069 13.9032 13.5811 13.9473C13.4553 13.9914 13.3215 14.0081 13.1887 13.9963C13.0559 13.9845 12.9272 13.9445 12.8111 13.8789L9.2118 11.0835L6.90169 13.2137C6.84809 13.2533 6.78539 13.2788 6.71935 13.2878C6.65332 13.2968 6.58608 13.2891 6.52382 13.2653L6.96666 9.30494L6.98083 9.31618L6.98989 9.238C6.98989 9.238 13.4668 3.34408 13.7307 3.09297C13.9978 2.8425 13.9097 2.78817 13.9097 2.78817C13.9249 2.48267 13.4303 2.78817 13.4303 2.78817L4.84854 8.30642L1.27465 7.08987C1.27465 7.08987 0.725733 6.89308 0.674023 6.46039C0.619662 6.03102 1.29253 5.79779 1.29253 5.79779L15.502 0.155663C15.502 0.155663 16.6701 -0.364511 16.6701 0.49692L14.1397 13.4131Z" fill="#666666"/>
</svg>
