<svg width="17" height="14" viewBox="0 0 17 14" fill="none" xmlns="http://www.w3.org/2000/svg">
<path d="M5.68993 13.5C11.7316 13.5 15.0352 8.49738 15.0352 4.16178C15.0352 4.01885 15.0352 3.87592 15.0284 3.73979C15.6686 3.27696 16.2272 2.69843 16.6699 2.03822C16.0841 2.29686 15.4507 2.47382 14.7832 2.5555C15.4643 2.14712 15.982 1.50733 16.2272 0.73822C15.5937 1.11257 14.8921 1.38482 14.1429 1.53455C13.5435 0.894764 12.6921 0.5 11.7453 0.5C9.93344 0.5 8.46217 1.97016 8.46217 3.78063C8.46217 4.03927 8.48942 4.2911 8.55072 4.52932C5.81935 4.39319 3.4013 3.08639 1.78018 1.09895C1.50091 1.5822 1.33744 2.14712 1.33744 2.74607C1.33744 3.88272 1.91641 4.89005 2.80189 5.47539C2.26379 5.46178 1.75975 5.31204 1.31701 5.06702C1.31701 5.08063 1.31701 5.09424 1.31701 5.10785C1.31701 6.70052 2.4477 8.02094 3.95302 8.32723C3.68056 8.40209 3.38767 8.44293 3.08797 8.44293C2.87682 8.44293 2.67248 8.42251 2.46813 8.38168C2.88363 9.68848 4.09606 10.6346 5.53327 10.6618C4.40939 11.5398 2.99261 12.0639 1.45323 12.0639C1.18759 12.0639 0.928755 12.0503 0.669922 12.0162C2.10713 12.9555 3.83723 13.5 5.68993 13.5Z" fill="#666666"/>
</svg>
